<svg width="130" height="151" viewBox="0 0 130 151" fill="none" xmlns="http://www.w3.org/2000/svg">
<path d="M130 84.2555C130 121.117 100.899 151 65 151C29.1015 151 0 121.117 0 84.2555C0 47.3935 29.1015 24 65 24C100.899 24 130 47.3935 130 84.2555Z" fill="#FFC93D"/>
<path d="M65 44.6314C65.8333 28.7981 70.1 -2.26858 80.5 0.131422C90.9 2.53142 74.5 30.7981 65 44.6314Z" fill="#FFC93D"/>
<path d="M67.931 35.7663C62.6536 28.3582 53.4806 12.8834 59.0079 10.249C64.5351 7.61456 67.2596 26.1628 67.931 35.7663Z" fill="#FFC93D"/>
<rect x="41" y="45" width="7" height="7" rx="3.5" fill="black"/>
<rect x="67" y="45" width="7" height="7" rx="3.5" fill="black"/>
<path d="M52 48.6667C52 48.2985 52.2985 48 52.6667 48H57.5H62.3333C62.7015 48 63 48.2985 63 48.6667V50.5C63 53.5376 60.5376 56 57.5 56C54.4624 56 52 53.5376 52 50.5V48.6667Z" fill="#666666"/>
</svg>
